# Blender3D v249 OBJ File: convex.blend
# www.blender3d.org
mtllib convex.mtl
v 1.000000 -0.500000 -1.000000
v 1.000000 -0.500000 1.000000
v -1.000000 -0.500000 1.000000
v -1.000000 -0.500000 -1.000000
v 1.000000 0.500000 -0.999999
v 0.999999 0.500000 1.000001
v -1.000000 0.500000 1.000000
v -1.000000 0.500000 -1.000000
v -0.500000 1.000000 -0.500000
v -0.500000 1.000000 0.500000
v 0.500000 1.000000 0.500000
v 0.500000 1.000000 -0.500000
v -0.500000 -1.000000 -0.500000
v -0.500000 -1.000000 0.500000
v 0.500000 -1.000000 0.500000
v 0.500000 -1.000000 -0.500000
v 1.300001 -0.000000 -1.300000
v 1.300000 0.000000 1.300000
v -1.300000 0.000000 1.300000
v -1.300000 -0.000000 -1.300000
v 0.000000 -0.650000 -1.300000
v -0.000000 -0.650000 1.300000
v 0.000000 0.650000 -1.300000
v -0.000001 0.650000 1.300000
v -0.000000 1.300000 0.650000
v 0.000000 1.300000 -0.650000
v -0.000000 -1.300000 0.650000
v 0.000000 -1.300000 -0.650000
v -0.000000 0.000000 1.690000
v 0.000001 -0.000000 -1.690000
vt 0.884615 0.250000
vt 0.795858 0.307692
vt 1.000000 0.500000
vt 0.884615 0.500000
vt 0.795858 0.692308
vt 0.884615 0.750000
vt 0.115385 0.750000
vt 0.204142 0.692308
vt 0.000000 0.500000
vt 0.115385 0.500000
vt 0.204142 0.307692
vt 0.115385 0.250000
vt 0.307692 0.000000
vt 0.352071 0.115385
vt 0.647929 0.115385
vt 0.692308 0.000000
vt 0.692308 1.000000
vt 0.647929 0.884615
vt 0.352071 0.884615
vt 0.307692 1.000000
vn -0.317157 -0.487934 -0.813223
vn -0.230198 -0.598514 -0.767326
vn 0.317157 -0.487934 -0.813223
vn 0.230198 -0.598514 -0.767326
vn -0.230198 0.598515 -0.767326
vn -0.317157 0.487934 -0.813223
vn 0.230198 0.598515 -0.767326
vn 0.317157 0.487934 -0.813223
vn -0.317158 0.487934 0.813223
vn -0.230198 0.598514 0.767326
vn 0.317157 0.487934 0.813223
vn 0.230198 0.598514 0.767326
vn -0.230198 -0.598514 0.767326
vn -0.317157 -0.487934 0.813223
vn 0.230198 -0.598515 0.767326
vn 0.317157 -0.487934 0.813223
vn -0.514496 -0.857493 -0.000000
vn 0.514496 -0.857493 0.000000
vn 0.278277 -0.803910 -0.525633
vn 0.536895 -0.596550 -0.596550
vn -0.278277 -0.803910 -0.525633
vn -0.536895 -0.596550 -0.596550
vn -0.278277 -0.803910 0.525634
vn -0.536895 -0.596550 0.596550
vn 0.278277 -0.803910 0.525634
vn 0.536895 -0.596550 0.596550
vn -0.514496 0.857493 -0.000000
vn 0.514496 0.857493 0.000000
vn -0.278276 0.803910 -0.525634
vn -0.536895 0.596550 -0.596550
vn 0.278277 0.803910 -0.525634
vn 0.536895 0.596550 -0.596550
vn 0.278276 0.803910 0.525634
vn 0.536895 0.596550 0.596550
vn -0.278277 0.803910 0.525633
vn -0.536895 0.596550 0.596550
vn -0.857493 0.514495 -0.000000
vn -0.857493 0.514496 -0.000000
vn -0.857493 -0.514496 -0.000000
vn 0.857493 0.514496 0.000000
vn 0.857493 -0.514496 0.000000
vn 0.857493 -0.514495 0.000000
vn 0.707107 -0.707107 0.000000
vn -0.707107 -0.707107 -0.000000
vn 0.707107 0.707107 0.000000
vn -0.707107 0.707107 -0.000000
usemtl Material_wood045.jpg
s off
f 21/1/1 4/2/1 30/3/1
f 4/2/2 20/4/2 30/3/2
f 1/2/3 21/1/3 30/3/3
f 1/2/4 30/3/4 17/4/4
f 30/3/5 20/4/5 8/5/5
f 30/3/6 8/5/6 23/6/6
f 17/4/7 30/3/7 5/5/7
f 30/3/8 23/6/8 5/5/8
f 24/7/9 7/8/9 29/9/9
f 7/8/10 19/10/10 29/9/10
f 6/8/11 24/7/11 29/9/11
f 6/8/12 29/9/12 18/10/12
f 29/9/13 19/10/13 3/11/13
f 29/9/14 3/11/14 22/12/14
f 18/10/15 29/9/15 2/11/15
f 29/9/16 22/12/16 2/11/16
f 27/13/17 14/14/17 13/15/17
f 27/13/17 13/15/17 28/16/17
f 15/14/18 27/13/18 16/15/18
f 27/13/18 28/16/18 16/15/18
f 21/1/19 1/2/19 16/15/19
f 21/1/20 16/15/20 28/16/20
f 4/2/21 21/1/21 13/15/21
f 21/1/22 28/16/22 13/15/22
f 22/12/23 3/11/23 14/14/23
f 22/12/24 14/14/24 27/13/24
f 2/11/25 22/12/25 15/14/25
f 22/12/26 27/13/26 15/14/26
f 26/17/27 9/18/27 10/19/27
f 26/17/27 10/19/27 25/20/27
f 12/18/28 26/17/28 11/19/28
f 26/17/28 25/20/28 11/19/28
f 23/6/29 8/5/29 9/18/29
f 23/6/30 9/18/30 26/17/30
f 5/5/31 23/6/31 12/18/31
f 23/6/32 26/17/32 12/18/32
f 24/7/33 6/8/33 11/19/33
f 24/7/34 11/19/34 25/20/34
f 7/8/35 24/7/35 10/19/35
f 24/7/36 25/20/36 10/19/36
f 19/10/37 7/8/37 8/5/37
f 19/10/38 8/5/38 20/4/38
f 3/11/39 19/10/39 20/4/39
f 3/11/39 20/4/39 4/2/39
f 17/4/40 5/5/40 18/10/40
f 5/5/40 6/8/40 18/10/40
f 1/2/41 17/4/41 2/11/41
f 17/4/42 18/10/42 2/11/42
f 1/2/43 2/11/43 15/14/43
f 1/2/43 15/14/43 16/15/43
f 3/11/44 4/2/44 13/15/44
f 3/11/44 13/15/44 14/14/44
f 6/8/45 5/5/45 12/18/45
f 6/8/45 12/18/45 11/19/45
f 8/5/46 7/8/46 9/18/46
f 7/8/46 10/19/46 9/18/46
