# Blender3D v249 OBJ File: landscape.blend
# www.blender3d.org
mtllib landscape.mtl
v 31.999998 -2.578126 -31.999998
v 31.999998 -2.578124 32.000000
v -32.000000 -2.578124 31.999994
v -31.999989 -2.578126 -32.000015
v 26.181818 -2.578124 32.000000
v 20.363636 -2.578124 31.999998
v 14.545453 -2.578124 31.999998
v 8.727271 -2.578124 31.999998
v 2.909088 -2.578124 31.999998
v -2.909094 -2.578124 31.999994
v -8.727275 -2.578124 31.999994
v -14.545459 -2.578124 31.999994
v -20.363640 -2.578124 31.999994
v -26.181824 -2.578124 31.999994
v 26.181820 -2.578126 -32.000000
v 20.363638 -2.578126 -32.000000
v 14.545457 -2.578126 -32.000000
v 8.727276 -2.578126 -32.000004
v 2.909095 -2.578126 -32.000004
v -2.909086 -2.578126 -32.000004
v -8.727264 -2.578126 -32.000008
v -14.545447 -2.578126 -32.000008
v -20.363626 -2.578126 -32.000008
v -26.181810 -2.578126 -32.000015
v 31.999998 -2.578126 -26.181816
v 31.999998 -2.578126 -20.363634
v 31.999998 -2.578126 -14.545453
v 31.999998 -2.578125 -8.727271
v 31.999998 -2.578125 -2.909089
v 31.999998 -2.578125 2.909093
v 31.999998 -2.578125 8.727273
v 31.999998 -2.578124 14.545457
v 31.999998 -2.578124 20.363636
v 31.999998 -2.578124 26.181820
v -32.000000 -2.578124 26.181812
v -32.000000 -2.578124 20.363628
v -32.000000 -2.578124 14.545446
v -31.999998 -2.578125 8.727264
v -31.999996 -2.578125 2.909082
v -31.999996 -2.578125 -2.909101
v -31.999994 -2.578125 -8.727282
v -31.999992 -2.578126 -14.545465
v -31.999990 -2.578126 -20.363646
v -31.999990 -2.578126 -26.181831
v 26.181820 -1.078126 -26.181818
v 26.181820 -1.078126 -20.363636
v 26.181820 -0.078126 -14.545454
v 26.181820 -0.078125 -8.727272
v 26.181820 -0.078125 -2.909090
v 26.181818 -1.078125 2.909092
v 26.181818 -1.078125 8.727272
v 26.181818 -1.078124 14.545456
v 26.181818 1.421876 20.363636
v 26.181818 1.421876 26.181820
v 20.363636 1.421876 26.181816
v 20.363636 1.421876 20.363634
v 20.363636 -1.078124 14.545453
v 20.363636 -1.078125 8.727271
v 20.363636 -1.078125 2.909089
v 20.363638 -0.078125 -2.909093
v 20.363638 -0.078125 -8.727273
v 20.363638 -0.078126 -14.545457
v 20.363638 -1.078126 -20.363636
v 20.363638 -1.078126 -26.181820
v 14.545453 1.421876 26.181816
v 14.545454 1.421876 20.363634
v 14.545454 -1.078124 14.545453
v 14.545454 -1.078125 8.727271
v 14.545455 -1.078125 2.909089
v 14.545455 2.921875 -2.909093
v 14.545456 2.921875 -8.727273
v 14.545456 2.921874 -14.545457
v 14.545456 1.421874 -20.363636
v 14.545457 1.421874 -26.181820
v 8.727271 -0.078124 26.181816
v 8.727272 -0.078124 20.363634
v 8.727272 1.421876 14.545451
v 8.727273 2.921875 8.727269
v 8.727273 2.921875 2.909087
v 8.727274 2.921875 -2.909095
v 8.727274 2.921875 -8.727275
v 8.727275 2.921874 -14.545459
v 8.727275 1.421874 -20.363640
v 8.727276 1.421874 -26.181824
v 2.909089 -0.078124 26.181816
v 2.909090 -0.078124 20.363634
v 2.909090 1.421876 14.545451
v 2.909091 2.921875 8.727269
v 2.909091 2.921875 2.909087
v 2.909092 1.421875 -2.909095
v 2.909093 1.421875 -8.727275
v 2.909093 1.421874 -14.545459
v 2.909094 1.421874 -20.363640
v 2.909095 -1.078126 -26.181824
v -2.909093 -1.078124 26.181814
v -2.909093 1.421876 20.363632
v -2.909092 1.421876 14.545450
v -2.909091 -0.078125 8.727268
v -2.909090 -0.078125 2.909086
v -2.909090 1.421875 -2.909096
v -2.909089 2.921875 -8.727276
v -2.909088 2.921874 -14.545460
v -2.909087 -1.078126 -20.363640
v -2.909086 -1.078126 -26.181824
v -8.727265 -1.078126 -26.181826
v -8.727266 1.421874 -20.363644
v -8.727267 2.921874 -14.545461
v -8.727268 2.921875 -8.727279
v -8.727269 1.421875 -2.909096
v -8.727270 -0.078125 2.909086
v -8.727271 -0.078125 8.727267
v -8.727272 2.921876 14.545451
v -8.727273 2.921876 20.363632
v -8.727274 1.421876 26.181816
v -14.545448 1.421874 -26.181826
v -14.545449 1.421874 -20.363644
v -14.545450 2.921874 -14.545461
v -14.545451 2.921875 -8.727279
v -14.545452 2.921875 -2.909096
v -14.545454 1.421875 2.909086
v -14.545455 1.421875 8.727267
v -14.545456 2.921876 14.545451
v -14.545457 2.921876 20.363632
v -14.545458 1.421876 26.181816
v -20.363628 1.421874 -26.181826
v -20.363628 1.421874 -20.363644
v -20.363630 1.421874 -14.545461
v -20.363632 2.921875 -8.727279
v -20.363632 2.921875 -2.909096
v -20.363634 1.421875 2.909086
v -20.363634 1.421875 8.727267
v -20.363636 1.421876 14.545451
v -20.363638 1.421876 20.363632
v -20.363638 1.421876 26.181816
v -26.181822 -1.078124 26.181812
v -26.181822 -1.078124 20.363628
v -26.181820 -1.078124 14.545446
v -26.181818 -1.078125 8.727264
v -26.181818 -1.078125 2.909082
v -26.181816 -1.078125 -2.909101
v -26.181816 -1.078125 -8.727282
v -26.181814 -1.078126 -14.545465
v -26.181812 -1.078126 -20.363646
v -26.181812 -1.078126 -26.181831
vt 2.420696 1.952540
vt 2.433239 2.297270
vt 2.088508 2.309814
vt 2.038469 1.924533
vt 2.444872 1.617611
vt 2.069775 1.592332
vt 2.464464 1.280079
vt 2.087720 1.262496
vt 2.477691 0.941123
vt 2.098904 0.928857
vt 2.486709 0.602480
vt 2.107925 0.594225
vt 2.492291 0.263992
vt 2.117604 0.263723
vt 2.488147 -0.075953
vt 2.113325 -0.064395
vt 2.472292 -0.415371
vt 2.096282 -0.389032
vt 2.443595 -0.757661
vt 2.067137 -0.716308
vt 2.399873 -1.101431
vt 2.015905 -1.046754
vt 2.386008 -1.447638
vt 2.039801 -1.433772
vt 1.746449 2.357723
vt 1.640323 1.851307
vt 1.653334 1.560931
vt 1.659627 1.246424
vt 1.657654 0.919388
vt 1.658006 0.578802
vt 1.602603 0.241167
vt 1.601405 -0.036915
vt 1.671475 -0.362897
vt 1.656657 -0.671908
vt 1.639102 -0.945500
vt 1.698531 -1.456504
vt 1.397364 2.406798
vt 1.357730 1.861442
vt 1.331571 1.546384
vt 1.319184 1.272326
vt 1.322105 0.925216
vt 1.323774 0.597601
vt 1.321908 0.245594
vt 1.318848 -0.041647
vt 1.327507 -0.333816
vt 1.355663 -0.670427
vt 1.370564 -0.960290
vt 1.364151 -1.472078
vt 1.057393 2.421820
vt 1.062470 1.870820
vt 1.059777 1.553439
vt 1.045943 1.280411
vt 0.982748 0.899155
vt 0.977932 0.621310
vt 0.996700 0.296087
vt 1.018781 -0.043253
vt 1.026832 -0.347794
vt 1.046721 -0.695984
vt 1.015633 -1.118874
vt 1.029620 -1.489883
vt 0.679893 2.047286
vt 0.704885 2.444322
vt 0.713635 1.596517
vt 0.702995 1.259900
vt 0.700218 0.906843
vt 0.697548 0.615906
vt 0.694427 0.284049
vt 0.720835 -0.053976
vt 0.719494 -0.356574
vt 0.699001 -0.848578
vt 0.694718 -1.131025
vt 0.691580 -1.500000
vt 0.351400 2.466753
vt 0.318364 2.011600
vt 0.336601 1.669725
vt 0.344690 1.255081
vt 0.293878 0.897036
vt 0.290620 0.614309
vt 0.381233 0.288195
vt 0.379157 -0.028220
vt 0.364182 -0.347999
vt 0.349429 -0.672153
vt 0.371032 -1.110933
vt 0.352985 -1.485843
vt -0.011608 2.484401
vt -0.027857 2.012009
vt -0.003073 1.664903
vt -0.026977 1.272105
vt 0.011799 0.895309
vt -0.003068 0.600259
vt 0.025992 0.286628
vt 0.030068 -0.018205
vt 0.020460 -0.314433
vt 0.027078 -0.647058
vt 0.010311 -0.945810
vt 0.016007 -1.466331
vt -0.360938 2.499261
vt -0.387856 1.947911
vt -0.378057 1.630403
vt -0.461826 1.243064
vt -0.472688 0.955971
vt -0.485371 0.676188
vt -0.268902 0.267929
vt -0.266799 -0.020880
vt -0.258957 -0.305466
vt -0.287233 -0.643561
vt -0.266748 -0.931042
vt -0.322990 -1.451899
vt -0.724378 2.500000
vt -0.678073 1.944845
vt -0.692335 1.658376
vt -0.756391 1.271291
vt -0.775195 0.962550
vt -0.767252 0.649206
vt -0.721650 0.300811
vt -0.713380 -0.033694
vt -0.693494 -0.364316
vt -0.699737 -0.708181
vt -0.656510 -1.040770
vt -0.665212 -1.437600
vt -1.090506 2.428937
vt -0.944073 1.944140
vt -0.960042 1.695037
vt -1.078060 1.312000
vt -1.101645 0.970062
vt -1.102794 0.625851
vt -1.054887 0.273387
vt -1.040032 -0.049576
vt -1.018150 -0.371879
vt -1.030514 -0.721262
vt -0.998918 -1.057197
vt -1.006374 -1.435645
vt -1.448515 2.029599
vt -1.469187 2.408280
vt -1.466121 1.676366
vt -1.474855 1.326815
vt -1.489362 0.981005
vt -1.495374 0.627202
vt -1.495375 0.278494
vt -1.486131 -0.073785
vt -1.458264 -0.421017
vt -1.417338 -0.766690
vt -1.375715 -1.110075
vt -1.353829 -1.457531
vn -0.173559 0.977538 0.119327
vn 0.000000 1.000000 0.000000
vn -0.119327 0.977538 0.173559
vn -0.261238 0.928831 0.262612
vn -0.249641 0.968322 0.000000
vn -0.323160 0.946318 0.000000
vn -0.449263 0.891903 0.051424
vn -0.450301 0.891385 -0.050966
vn -0.321238 0.946989 0.000000
vn -0.174657 0.977569 -0.117618
vn -0.262001 0.928617 -0.262612
vn -0.119327 0.977538 -0.173559
vn -0.167913 0.867122 0.468886
vn -0.190619 0.939940 0.283120
vn -0.207770 0.976165 0.062563
vn -0.208106 0.976104 -0.062105
vn -0.203619 0.979034 0.000000
vn -0.257149 0.957335 0.131626
vn -0.287637 0.950194 0.119816
vn -0.319773 0.942503 -0.096744
vn -0.295022 0.949065 -0.110569
vn -0.189581 0.940580 -0.281655
vn -0.166173 0.866848 -0.470016
vn 0.000000 0.824030 0.566515
vn -0.047548 0.958373 0.281472
vn -0.123997 0.984497 0.123997
vn -0.122868 0.984771 -0.122868
vn 0.065676 0.977783 -0.198950
vn 0.125034 0.984222 0.125034
vn 0.086093 0.983642 0.158177
vn -0.086093 0.983642 -0.158177
vn -0.082797 0.984161 -0.156682
vn 0.138371 0.930082 -0.340220
vn 0.167913 0.867122 -0.468886
vn 0.166173 0.866848 0.470016
vn 0.163915 0.894833 0.415143
vn 0.122868 0.984771 0.122868
vn 0.142582 0.970031 -0.196692
vn 0.122013 0.961089 0.247780
vn 0.082797 0.984161 0.156682
vn 0.000000 0.992035 -0.125797
vn 0.174841 0.941618 -0.287667
vn 0.000000 0.968322 -0.249641
vn 0.064608 0.950072 0.305246
vn 0.000000 0.968322 0.249641
vn 0.208075 0.962035 0.176427
vn 0.140233 0.970367 -0.196600
vn -0.229774 0.973174 -0.011017
vn -0.230018 0.965545 0.121586
vn -0.095676 0.991058 0.092898
vn 0.034700 0.937864 -0.345225
vn 0.000000 0.930082 -0.367290
vn 0.000000 0.991760 -0.127873
vn -0.074923 0.933439 0.350749
vn -0.082308 0.976287 0.200079
vn 0.050111 0.981872 0.182775
vn -0.227271 0.972777 -0.045228
vn -0.123936 0.984497 -0.123936
vn 0.051424 0.997223 0.053743
vn -0.053377 0.997101 -0.054079
vn -0.100833 0.965453 -0.240150
vn -0.173803 0.941862 -0.287454
vn 0.000000 0.918760 0.394757
vn -0.131626 0.957335 0.257149
vn 0.212012 0.976135 0.046907
vn 0.286019 0.950774 0.119053
vn 0.358379 0.916440 0.177923
vn -0.158238 0.983825 -0.083621
vn -0.125797 0.992035 0.000000
vn -0.139103 0.930448 -0.338908
vn -0.101321 0.851405 0.514573
vn -0.119816 0.950194 0.287637
vn 0.016388 0.992279 -0.122868
vn 0.193396 0.961394 -0.195654
vn 0.345500 0.937742 0.034944
vn 0.326151 0.920591 0.214637
vn 0.322367 0.921567 0.216285
vn 0.235786 0.971801 0.000000
vn 0.230018 0.965545 -0.121586
vn 0.214118 0.968261 -0.128666
vn 0.189764 0.940489 -0.281838
vn 0.000000 0.955626 0.294534
vn 0.000000 0.979034 -0.203619
vn 0.000000 0.979461 -0.201514
vn 0.000000 0.996521 0.082949
vn 0.269509 0.939421 0.211737
vn 0.246559 0.964721 -0.092074
vn 0.198584 0.976531 -0.083010
vn 0.223182 0.947783 -0.227729
vn 0.259285 0.884976 0.386731
vn 0.277322 0.919858 0.277322
vn 0.281838 0.940489 -0.189764
vn 0.227729 0.947783 -0.223182
vn 0.125797 0.992035 0.000000
vn 0.175481 0.980010 0.093600
vn 0.196997 0.976928 0.082308
vn 0.201514 0.979461 0.000000
vn 0.174841 0.980163 -0.092959
vn 0.123997 0.984497 -0.123997
vn 0.119327 0.977538 -0.173559
vn 0.386731 0.884976 0.259285
vn 0.468886 0.867122 -0.167913
vn 0.249641 0.968322 0.000000
vn 0.351756 0.933195 0.073305
vn 0.394757 0.918760 0.000000
vn 0.350749 0.933439 -0.074923
vn 0.173559 0.977538 -0.119327
usemtl Material_veg004.jpg
s 1
f 35/1/1 3/2/2 14/3/3
f 35/1/1 14/3/3 135/4/4
f 36/5/5 35/1/1 135/4/4
f 36/5/5 135/4/4 136/6/6
f 37/7/5 36/5/5 136/6/6
f 37/7/5 136/6/6 137/8/6
f 38/9/5 37/7/5 137/8/6
f 38/9/5 137/8/6 138/10/6
f 39/11/5 38/9/5 138/10/6
f 39/11/5 138/10/6 139/12/6
f 40/13/5 39/11/5 139/12/6
f 40/13/5 139/12/6 140/14/7
f 41/15/5 40/13/5 140/14/7
f 41/15/5 140/14/7 141/16/8
f 42/17/5 41/15/5 141/16/8
f 42/17/5 141/16/8 142/18/9
f 43/19/5 42/17/5 142/18/9
f 43/19/5 142/18/9 143/20/6
f 44/21/10 43/19/5 143/20/6
f 44/21/10 143/20/6 144/22/11
f 4/23/2 44/21/10 24/24/12
f 44/21/10 144/22/11 24/24/12
f 135/4/4 14/3/3 13/25/13
f 135/4/4 13/25/13 134/26/14
f 136/6/6 135/4/4 134/26/14
f 136/6/6 134/26/14 133/27/15
f 137/8/6 136/6/6 133/27/15
f 137/8/6 133/27/15 132/28/16
f 138/10/6 137/8/6 132/28/16
f 138/10/6 132/28/16 131/29/17
f 139/12/6 138/10/6 131/29/17
f 139/12/6 131/29/17 130/30/18
f 140/14/7 139/12/6 130/30/18
f 140/14/7 130/30/18 129/31/19
f 141/16/8 140/14/7 129/31/19
f 141/16/8 129/31/19 128/32/20
f 142/18/9 141/16/8 127/33/21
f 141/16/8 128/32/20 127/33/21
f 143/20/6 142/18/9 127/33/21
f 143/20/6 127/33/21 126/34/17
f 144/22/11 143/20/6 126/34/17
f 144/22/11 126/34/17 125/35/22
f 24/24/12 144/22/11 23/36/23
f 144/22/11 125/35/22 23/36/23
f 134/26/14 13/25/13 12/37/24
f 134/26/14 12/37/24 124/38/25
f 133/27/15 134/26/14 124/38/25
f 133/27/15 124/38/25 123/39/26
f 132/28/16 133/27/15 123/39/26
f 132/28/16 123/39/26 122/40/27
f 131/29/17 132/28/16 121/41/28
f 132/28/16 122/40/27 121/41/28
f 130/30/18 131/29/17 121/41/28
f 130/30/18 121/41/28 120/42/29
f 129/31/19 130/30/18 120/42/29
f 129/31/19 120/42/29 119/43/30
f 128/32/20 129/31/19 119/43/30
f 128/32/20 119/43/30 118/44/2
f 127/33/21 128/32/20 117/45/31
f 128/32/20 118/44/2 117/45/31
f 126/34/17 127/33/21 116/46/32
f 127/33/21 117/45/31 116/46/32
f 125/35/22 126/34/17 116/46/32
f 125/35/22 116/46/32 115/47/33
f 23/36/23 125/35/22 115/47/33
f 23/36/23 115/47/33 22/48/34
f 124/38/25 12/37/24 11/49/35
f 124/38/25 11/49/35 114/50/36
f 123/39/26 124/38/25 114/50/36
f 123/39/26 114/50/36 113/51/37
f 122/40/27 123/39/26 113/51/37
f 122/40/27 113/51/37 112/52/38
f 121/41/28 122/40/27 112/52/38
f 121/41/28 112/52/38 111/53/38
f 120/42/29 121/41/28 111/53/38
f 120/42/29 111/53/38 110/54/37
f 119/43/30 120/42/29 109/55/39
f 120/42/29 110/54/37 109/55/39
f 118/44/2 119/43/30 108/56/40
f 119/43/30 109/55/39 108/56/40
f 117/45/31 118/44/2 108/56/40
f 117/45/31 108/56/40 107/57/41
f 116/46/32 117/45/31 107/57/41
f 116/46/32 107/57/41 106/58/42
f 115/47/33 116/46/32 106/58/42
f 115/47/33 106/58/42 105/59/42
f 22/48/34 115/47/33 105/59/42
f 22/48/34 105/59/42 21/60/43
f 114/50/36 11/49/35 95/61/44
f 11/49/35 10/62/45 95/61/44
f 113/51/37 114/50/36 96/63/46
f 114/50/36 95/61/44 96/63/46
f 112/52/38 113/51/37 96/63/46
f 112/52/38 96/63/46 97/64/47
f 111/53/38 112/52/38 97/64/47
f 111/53/38 97/64/47 98/65/48
f 110/54/37 111/53/38 98/65/48
f 110/54/37 98/65/48 99/66/49
f 109/55/39 110/54/37 99/66/49
f 109/55/39 99/66/49 100/67/50
f 108/56/40 109/55/39 100/67/50
f 108/56/40 100/67/50 101/68/37
f 107/57/41 108/56/40 101/68/37
f 107/57/41 101/68/37 102/69/51
f 106/58/42 107/57/41 102/69/51
f 106/58/42 102/69/51 103/70/52
f 105/59/42 106/58/42 103/70/52
f 105/59/42 103/70/52 104/71/53
f 21/60/43 105/59/42 104/71/53
f 21/60/43 104/71/53 20/72/43
f 95/61/44 10/62/45 9/73/54
f 95/61/44 9/73/54 85/74/55
f 96/63/46 95/61/44 86/75/56
f 95/61/44 85/74/55 86/75/56
f 97/64/47 96/63/46 87/76/50
f 96/63/46 86/75/56 87/76/50
f 98/65/48 97/64/47 87/76/50
f 98/65/48 87/76/50 88/77/49
f 99/66/49 98/65/48 88/77/49
f 99/66/49 88/77/49 89/78/57
f 100/67/50 99/66/49 89/78/57
f 100/67/50 89/78/57 90/79/58
f 101/68/37 100/67/50 91/80/59
f 100/67/50 90/79/58 91/80/59
f 102/69/51 101/68/37 91/80/59
f 102/69/51 91/80/59 92/81/60
f 103/70/52 102/69/51 93/82/61
f 102/69/51 92/81/60 93/82/61
f 104/71/53 103/70/52 94/83/62
f 103/70/52 93/82/61 94/83/62
f 20/72/43 104/71/53 94/83/62
f 20/72/43 94/83/62 19/84/43
f 85/74/55 9/73/54 8/85/63
f 85/74/55 8/85/63 75/86/64
f 86/75/56 85/74/55 75/86/64
f 86/75/56 75/86/64 76/87/26
f 87/76/50 86/75/56 76/87/26
f 87/76/50 76/87/26 77/88/65
f 88/77/49 87/76/50 77/88/65
f 88/77/49 77/88/65 78/89/66
f 89/78/57 88/77/49 78/89/66
f 89/78/57 78/89/66 79/90/67
f 90/79/58 89/78/57 80/91/68
f 89/78/57 79/90/67 80/91/68
f 91/80/59 90/79/58 80/91/68
f 91/80/59 80/91/68 81/92/69
f 92/81/60 91/80/59 81/92/69
f 92/81/60 81/92/69 82/93/27
f 93/82/61 92/81/60 83/94/32
f 92/81/60 82/93/27 83/94/32
f 94/83/62 93/82/61 84/95/70
f 93/82/61 83/94/32 84/95/70
f 19/84/43 94/83/62 18/96/23
f 94/83/62 84/95/70 18/96/23
f 75/86/64 8/85/63 7/97/71
f 75/86/64 7/97/71 65/98/72
f 76/87/26 75/86/64 65/98/72
f 76/87/26 65/98/72 66/99/73
f 77/88/65 76/87/26 66/99/73
f 77/88/65 66/99/73 67/100/74
f 78/89/66 77/88/65 68/101/75
f 77/88/65 67/100/74 68/101/75
f 79/90/67 78/89/66 68/101/75
f 79/90/67 68/101/75 69/102/76
f 80/91/68 79/90/67 70/103/77
f 79/90/67 69/102/76 70/103/77
f 81/92/69 80/91/68 70/103/77
f 81/92/69 70/103/77 71/104/78
f 82/93/27 81/92/69 71/104/78
f 82/93/27 71/104/78 72/105/79
f 83/94/32 82/93/27 72/105/79
f 83/94/32 72/105/79 73/106/80
f 84/95/70 83/94/32 74/107/81
f 83/94/32 73/106/80 74/107/81
f 18/96/23 84/95/70 74/107/81
f 18/96/23 74/107/81 17/108/34
f 65/98/72 7/97/71 6/109/24
f 65/98/72 6/109/24 55/110/82
f 66/99/73 65/98/72 55/110/82
f 66/99/73 55/110/82 56/111/83
f 67/100/74 66/99/73 56/111/83
f 67/100/74 56/111/83 57/112/84
f 68/101/75 67/100/74 57/112/84
f 68/101/75 57/112/84 58/113/2
f 69/102/76 68/101/75 58/113/2
f 69/102/76 58/113/2 59/114/85
f 70/103/77 69/102/76 60/115/86
f 69/102/76 59/114/85 60/115/86
f 71/104/78 70/103/77 60/115/86
f 71/104/78 60/115/86 61/116/78
f 72/105/79 71/104/78 61/116/78
f 72/105/79 61/116/78 62/117/87
f 73/106/80 72/105/79 62/117/87
f 73/106/80 62/117/87 63/118/88
f 74/107/81 73/106/80 63/118/88
f 74/107/81 63/118/88 64/119/89
f 17/108/34 74/107/81 64/119/89
f 17/108/34 64/119/89 16/120/43
f 55/110/82 6/109/24 5/121/90
f 55/110/82 5/121/90 54/122/91
f 56/111/83 55/110/82 53/123/92
f 55/110/82 54/122/91 53/123/92
f 57/112/84 56/111/83 53/123/92
f 57/112/84 53/123/92 52/124/93
f 58/113/2 57/112/84 52/124/93
f 58/113/2 52/124/93 51/125/94
f 59/114/85 58/113/2 51/125/94
f 59/114/85 51/125/94 50/126/95
f 60/115/86 59/114/85 50/126/95
f 60/115/86 50/126/95 49/127/96
f 61/116/78 60/115/86 49/127/96
f 61/116/78 49/127/96 48/128/97
f 62/117/87 61/116/78 48/128/97
f 62/117/87 48/128/97 47/129/88
f 63/118/88 62/117/87 47/129/88
f 63/118/88 47/129/88 46/130/98
f 64/119/89 63/118/88 46/130/98
f 64/119/89 46/130/98 45/131/99
f 16/120/43 64/119/89 45/131/99
f 16/120/43 45/131/99 15/132/100
f 54/122/91 5/121/90 34/133/101
f 5/121/90 2/134/2 34/133/101
f 53/123/92 54/122/91 34/133/101
f 53/123/92 34/133/101 33/135/102
f 52/124/93 53/123/92 33/135/102
f 52/124/93 33/135/102 32/136/103
f 51/125/94 52/124/93 32/136/103
f 51/125/94 32/136/103 31/137/103
f 50/126/95 51/125/94 31/137/103
f 50/126/95 31/137/103 30/138/103
f 49/127/96 50/126/95 29/139/104
f 50/126/95 30/138/103 29/139/104
f 48/128/97 49/127/96 29/139/104
f 48/128/97 29/139/104 28/140/105
f 47/129/88 48/128/97 28/140/105
f 47/129/88 28/140/105 27/141/106
f 46/130/98 47/129/88 27/141/106
f 46/130/98 27/141/106 26/142/103
f 45/131/99 46/130/98 26/142/103
f 45/131/99 26/142/103 25/143/107
f 25/143/107 1/144/2 15/132/100
f 25/143/107 15/132/100 45/131/99
