# Blender3D v249 OBJ File: theroom.blend
# www.blender3d.org
mtllib theroom.mtl
v 0.750001 -5.250000 -0.749997
v 0.749997 -6.000000 -0.750000
v 0.749995 -6.000000 14.249999
v 0.749999 -6.000000 -15.749999
v 0.750006 -5.250000 -15.749997
v 0.749996 -5.250000 14.250003
v 15.749999 -5.250000 -0.749992
v 15.749997 -6.000000 -0.749999
v -14.249997 -5.250000 -0.750002
v -14.250005 -6.000000 -0.750001
v 15.749992 -5.250000 14.250006
v -14.249994 -5.250000 -15.750006
v 15.750006 -5.250000 -15.749989
v -14.250001 -6.000000 -15.749998
v -14.250001 -5.250000 14.250001
v -14.250007 -6.000000 14.249996
v 15.749996 -6.000000 14.250002
v 15.749999 -6.000000 -15.750000
vt 0.000000 1.500000
vt 0.000000 1.000000
vt 0.250000 1.000000
vt 0.250000 1.500000
vt 0.000000 0.500000
vt 0.250000 0.500000
vt 0.000000 0.000000
vt 0.250000 0.000000
vt 0.000000 -0.500000
vt 0.250000 -0.500000
vt 0.500000 0.500000
vt 0.500000 1.000000
vt -0.500000 1.000000
vt -0.500000 0.500000
vt 0.500000 1.500000
vt -0.500000 1.500000
vt 0.500000 -0.999999
vt -1.000000 -0.999999
vt -1.000000 0.500000
vt 0.500000 1.999999
vt -1.000000 1.999999
vt 1.999999 -1.000000
vt 2.000000 0.499999
vt 2.000000 1.999999
vn 1.000000 -0.000003 0.000000
vn 1.000000 0.000005 0.000000
vn 1.000000 -0.000009 0.000000
vn -0.000000 0.000003 -1.000000
vn 0.000001 0.000015 -1.000000
vn -0.000000 -0.000010 -1.000000
vn 0.000001 0.000003 -1.000000
vn 0.000000 -1.000000 0.000000
vn 0.000000 1.000000 -0.000000
usemtl Room_hungary18.jpg
s off
f 17/1/1 8/2/1 7/3/1
f 17/1/2 7/3/2 11/4/2
f 8/2/3 18/5/3 13/6/3
f 8/2/1 13/6/1 7/3/1
f 18/5/4 4/7/4 5/8/4
f 18/5/5 5/8/5 13/6/5
f 4/7/6 14/9/6 12/10/6
f 4/7/7 12/10/7 5/8/7
f 4/5/8 18/11/8 8/12/8
f 4/5/8 8/12/8 2/2/8
f 2/2/8 10/13/8 14/14/8
f 2/2/8 14/14/8 4/5/8
f 17/15/8 3/1/8 2/2/8
f 17/15/8 2/2/8 8/12/8
f 3/1/8 16/16/8 10/13/8
f 3/1/8 10/13/8 2/2/8
f 7/17/9 1/11/9 11/18/9
f 1/11/9 6/19/9 11/18/9
f 1/11/9 9/20/9 6/19/9
f 9/20/9 15/21/9 6/19/9
f 1/11/9 7/17/9 13/22/9
f 1/11/9 13/22/9 5/23/9
f 9/20/9 1/11/9 5/23/9
f 9/20/9 5/23/9 12/24/9
v 15.749996 -6.000000 14.250002
v -14.250007 -6.000000 14.249996
v -14.250001 -5.250000 14.250001
v -14.250001 -5.250000 15.750000
v 15.749992 -5.250000 15.750006
v -14.250007 -6.000000 15.749996
v -15.750006 -6.000000 15.749996
v -15.750002 -5.250000 15.750000
v -15.750002 -5.250000 14.250001
v -15.749992 -5.250000 -15.750006
v -15.750006 -6.000000 14.249996
v -15.750000 -6.000000 -15.749998
v -15.750002 6.000000 14.250000
v -15.750002 6.000000 15.750000
v 15.749992 6.000000 15.750006
v -14.250001 6.000000 15.750000
v -14.250001 6.000000 14.250000
v -14.250001 -6.000000 -15.749998
v -14.249994 -5.250000 -15.750006
v -15.749992 6.000000 -15.750006
v -14.249994 6.000000 -15.750006
v 15.749992 -5.250000 14.250006
v 15.749996 -6.000000 15.750003
v 15.749992 6.000000 14.250005
v -14.250005 -6.000000 -0.750001
v -14.249997 -5.250000 -0.750002
v -15.749997 6.000000 -0.750003
v -14.249997 6.000000 -0.750003
v -15.750003 -6.000000 -0.750001
v -15.749997 -5.250000 -0.750002
v 0.749996 -5.250000 14.250003
v 0.749995 -6.000000 15.749999
v 0.749996 6.000000 14.250002
v 0.749996 6.000000 15.750003
v 0.749996 -5.250000 15.750003
v 0.749995 -6.000000 14.249999
vt 1.000000 -0.000000
vt 1.500000 -0.000000
vt 1.500000 0.250000
vt 1.000000 0.250000
vt 0.500000 -0.000000
vt 0.500000 0.250000
vt 1.500000 1.000000
vt 0.500000 1.000000
vt -0.500000 0.000000
vt -0.500000 1.000000
vt 0.000000 0.000000
vt 0.000000 1.000000
vt 0.250000 1.000000
vt 0.250000 1.500000
vt 0.000000 1.500000
vt 0.250000 0.500000
vt 0.000000 0.500000
vt 0.000000 0.250000
vt -0.500000 0.250000
vt 1.000000 1.000000
vt 0.250000 0.000000
vt 0.250000 0.250000
vn 0.000000 -0.000000 -1.000000
vn -0.000000 0.000000 1.000000
vn -0.000000 -0.000005 1.000000
vn -0.000000 -0.000004 1.000000
vn 1.000000 0.000000 0.000000
vn -1.000000 -0.000000 -0.000000
vn -1.000000 0.000005 -0.000000
vn -1.000000 0.000008 -0.000000
vn -1.000000 0.000010 -0.000000
usemtl Room_wood045.jpg
s off
f 51/25/9 35/26/9 34/27/9
f 51/25/9 34/27/9 52/28/9
f 42/29/9 51/25/9 52/28/9
f 42/29/9 52/28/9 33/30/9
f 49/29/10 21/26/10 35/31/10
f 49/29/10 35/31/10 51/32/10
f 40/33/10 49/29/10 51/32/10
f 40/33/10 51/32/10 42/34/10
f 53/35/11 23/29/11 33/32/11
f 53/35/11 33/32/11 52/36/11
f 22/33/11 53/35/11 52/36/11
f 22/33/11 52/36/11 34/34/11
f 53/37/12 22/38/12 50/36/12
f 22/38/12 24/39/12 50/36/12
f 23/40/12 53/37/12 50/36/12
f 23/40/13 50/36/13 41/41/13
f 54/35/8 19/29/8 41/30/8
f 54/35/8 41/30/8 50/42/8
f 20/33/8 54/35/8 50/42/8
f 20/33/8 50/42/8 24/43/8
f 46/35/9 39/29/9 38/30/9
f 46/35/9 38/30/9 45/42/9
f 35/33/9 46/35/9 45/42/9
f 35/33/9 45/42/9 31/43/9
f 44/29/14 37/26/14 39/31/14
f 44/29/14 39/31/14 46/32/14
f 21/33/14 44/29/14 46/32/14
f 21/33/14 46/32/14 35/34/14
f 48/25/15 27/26/15 31/31/15
f 48/25/15 31/31/15 45/44/15
f 28/29/15 48/25/15 45/44/15
f 28/29/15 45/44/15 38/32/15
f 47/37/16 29/38/16 27/39/16
f 47/37/17 27/39/17 48/36/17
f 30/40/17 47/37/17 48/36/17
f 30/40/18 48/36/18 28/41/18
f 43/25/8 20/26/8 29/27/8
f 43/25/8 29/27/8 47/28/8
f 36/29/8 43/25/8 47/28/8
f 36/29/8 47/28/8 30/30/8
f 34/35/9 35/45/9 31/46/9
f 34/35/9 31/46/9 32/42/9
f 23/35/14 40/45/14 42/37/14
f 23/35/14 42/37/14 33/36/14
f 27/35/15 26/45/15 32/37/15
f 27/35/15 32/37/15 31/36/15
f 26/35/11 22/45/11 34/37/11
f 26/35/11 34/37/11 32/36/11
f 37/35/10 28/45/10 38/37/10
f 37/35/10 38/37/10 39/36/10
f 27/35/16 29/45/16 25/46/16
f 27/35/16 25/46/16 26/42/16
f 37/35/6 36/45/6 30/46/6
f 37/35/6 30/46/6 28/42/6
f 20/35/8 24/45/8 25/46/8
f 20/35/8 25/46/8 29/42/8
f 24/35/12 22/45/12 26/46/12
f 24/35/12 26/46/12 25/42/12
f 19/35/2 40/45/2 23/46/2
f 19/35/2 23/46/2 41/42/2
